<svg xmlns="http://www.w3.org/2000/svg" viewBox="0 0 300.26 365.85"><defs><style>.cls-1{fill:#fff;}</style></defs><title>Asset 2</title><g id="Layer_2" data-name="Layer 2"><g id="Layer_1-2" data-name="Layer 1"><path class="cls-1" d="M70.72,309.5c-.07-1.2.73-2.17.94-3.31.15-.81.41-1.62.49-2.44.21-2.38-.64-3.42-3-3.59s-5-.24-7.49-.4c-2.65-.17-5.3-.41-7.9-.61a1.08,1.08,0,0,1,.06-1c.59-1,.1-1.55-.82-1.9a12.73,12.73,0,0,0-5.14-.82,16.47,16.47,0,0,1-7.76-1.46,23.17,23.17,0,0,0-7.27-1.7,11.47,11.47,0,0,1-3.33-.78c0-.89.77-.85,1.24-1A35.72,35.72,0,0,0,37.63,287a81.94,81.94,0,0,1,13.29-6.87c1.53-.64,3-1.36,4.54-2.07,1.31-.61,2.54-1.2,2.13-3.13-.24-1.09.78-1.27,1.66-1.35a53.46,53.46,0,0,0,8.63-1.36c6-1.59,12-3.33,17.49-6.48a53.09,53.09,0,0,0,8.33-5.93c2.29-2,2.26-2.38-.28-4.24a81.34,81.34,0,0,0-15.26-8.43,224.85,224.85,0,0,0-34.1-12c-.93-.25-2-.28-2.71-1.12a2.91,2.91,0,0,1,.13-.47c.3-.63,1.44-.77,1.12-1.75s-1.28-1.19-2.21-1.31c-3.72-.44-7.43-.91-11.15-1.31-.89-.1-1.79-.15-1.76-1.27,0-1.45-.91-1.57-1.94-1.67a87.72,87.72,0,0,1-9.76-2.07c-.23,0-.49-.1-.6-.67a12.81,12.81,0,0,1,3.51-2.31,6,6,0,0,0,3-2.81,7.38,7.38,0,0,1,3.49-3.1c2.46-1.4,4.95-2.74,7.4-4.16a32.64,32.64,0,0,0,5.28-3.76c1.69-1.48,1.73-1.95.26-3.71a32.67,32.67,0,0,0-7.7-6.7,49.65,49.65,0,0,0-8.72-4.28,6.23,6.23,0,0,1-2.42-1.15c0-.22,0-.42.09-.52,1.73-1.89,1.74-1.89-.09-3.73A21,21,0,0,0,13.86,183a3.56,3.56,0,0,1-1.53-1.24,21.09,21.09,0,0,0-6.12-6.35c0-.9.7-1,1.2-1.18,2.3-1,4.59-2,6.88-3,3.82-1.69,3.89-2,1.54-5.3Q10.93,159,6,152.06c-.33-.47-.69-.94-1-1.43-.89-1.37-.87-1.4.61-2.14,3-1.51,3-1.5,1.22-4.57-1.39-2.36-2.72-4.77-4.1-7.15-.52-.91-1-1.69.1-2.62A2,2,0,0,0,3,131.59c-3.67-7.08-3.07-14.7-2.8-22.27a5.76,5.76,0,0,1,.21-1.23,8.18,8.18,0,0,1,.44-1,9.35,9.35,0,0,1,1.29,4.12,24.15,24.15,0,0,0,7.54,15.08,87,87,0,0,1,9,9,1.79,1.79,0,0,0,2.42.63c1.28-.74,2.15-.22,3.12.59,2.74,2.3,5.54,4.54,8.32,6.79a15.61,15.61,0,0,0,1.6,1.21,4.43,4.43,0,0,0,6.36-1.22c.48-.65.65-1.55,1.58-2a18.87,18.87,0,0,1,6.38,6.15c2.91,4.55,6.68,8.41,9.78,12.8a11.2,11.2,0,0,0,2.86,2.36,2.92,2.92,0,0,0,2.64.29,8.34,8.34,0,0,0,5.92-5.55c.1-.32.2-.64.32-.94a4.89,4.89,0,0,1,.45-.6c2.76,4,7,6.83,8.85,11.52.67,1.7,1.54,3.32,2.29,5s2,2.87,4.09,2.47c1.12-.22,1.57.35,2.13,1.22a151.94,151.94,0,0,0,12.41,17.2,24,24,0,0,0,6.79,5.45q3.92,2.17,7.93,4.2c2.61,1.32,4,.23,4.12-2.71.27-5-1.57-9.25-4.45-13.17-2-2.76-3.93-5.59-6-8.31a18.1,18.1,0,0,0-6.84-5.7,4.76,4.76,0,0,1-2.11-1.7,73.19,73.19,0,0,0-8.08-9.83,9.15,9.15,0,0,1-.82-1c-.9-1.25-.85-1.71.4-2.69.66-.51,1.4-.9,2.09-1.37,1.45-1,1.61-1.48.65-2.83a41.57,41.57,0,0,0-5.38-6.55c-3-2.77-5.92-5.62-8.85-8.46-1.2-1.16-1.21-1.26.16-2.27a1.12,1.12,0,0,0,.26-1.87c-.66-.85-1.35-1.68-2.07-2.5a45.09,45.09,0,0,1-5.26-7A12.77,12.77,0,0,0,69,121.1c-1.63-1.16-3.24-2.35-4.85-3.54-.44-.33-1-.55-1.06-1.28.22-.13.43-.37.63-.36,6.06.39,12.13-.42,18.2.19,5,.5,10.13.75,15.19,1.16,2,.16,2.47-.17,2.62-2.25a13.61,13.61,0,0,0-2.28-8.54q-3.92-6.09-7.91-12.13c-.75-1.15-1.58-2.14-.12-3.46.84-.76,0-1.72-.39-2.5-1.84-3.64-3.77-7.24-5.57-10.89-2.06-4.17-2-4.18,2.66-4.18,2.66,0,5.33,0,8,0a10.24,10.24,0,0,0,2-.19c2-.46,2.68-1.46,2-3.47C96.32,64.84,94.7,60,91.9,55.72c-1.77-2.7-1.63-2.93,1.57-3.48,4.88-.83,5.87-2.33,4.43-7A16,16,0,0,1,97,39.67a8.48,8.48,0,0,0-1-4.34c-.49-.94-.38-1.51.67-1.94,1.31-.53,1.55-1.61,1.21-2.9-.17-.64-.27-1.31-.47-1.94a17.52,17.52,0,0,1-.79-7.13c.35-3.58-.27-7.14-.7-10.7C95.41,6.87,95,3.83,97.06,0c.8.17.53.89.66,1.36,1.84,6.67,3.84,13.26,7.84,19.05,1.46,2.11,2.3,4.62,4.23,6.44.63.6,1.15,1.16,2.13.92,1.39-.33,1.87.59,2.32,1.69,1.25,3.08,2.58,6.14,3.89,9.19.29.69.6,1.38.93,2.05,1.4,2.85,2.91,3.19,5.53,1.29.85-.62,1.54-2,2.56-1.72s1.06,1.91,1.45,3c.83,2.18,1.52,4.4,2.27,6.61a23.64,23.64,0,0,1,1.37,8.83,11,11,0,0,0,.32,3.47c.56,2.1,1.64,2.87,3.82,2.69A10.93,10.93,0,0,0,142,62.37c3-2.24,6-4.44,9.17-6.5a12.4,12.4,0,0,1,6.89-2.47c-.64,3.68-.37,7.41-.49,11.14a5.68,5.68,0,0,1-.54,1.63,4.42,4.42,0,0,0,1.52,5.37c1.91,1.41,2.14,3,1.88,5.22-.73,5.95-1.35,11.92-1.55,17.91a10.75,10.75,0,0,0,.64,4.42c.87,2.19,2.42,2.86,4.58,1.92A10.78,10.78,0,0,0,167,99.07c6.36-5.53,13.09-10.57,19.9-15.51a29.62,29.62,0,0,1,7-4,7,7,0,0,1-1,3.17,45.33,45.33,0,0,0-3.41,16.77c0,2,.37,3.63,2.6,4.22,1.48.39,1.26,1.54,1,2.64q-1.38,6.35-2.77,12.68c-.34,1.54-.73,3.08-1,4.63-.61,3.07,1,5.21,4.16,5.52a11.21,11.21,0,0,1,2.95.15c.36.62,0,1.13-.16,1.67-.76,2.11-1.45,4.25-2.28,6.34a4.7,4.7,0,0,0-.37,2.9,4.42,4.42,0,0,1-.94,3.74c-4.76,6.43-6.81,13.81-7.55,21.64-.15,1.58-.39,3.14-.54,4.72-.62,6.52.79,12.75,2.84,18.87.65,1.94,1.63,2.46,3.59,2.28a15.7,15.7,0,0,0,12.79-8,29.68,29.68,0,0,0,4.33-11.35,10.59,10.59,0,0,1,1-3.84c2.46-4.43,3.05-9.29,3.29-14.22.07-1.58.28-2.76,2.23-2.93,1.14-.09,1.51-1.21,1.85-2.15,2.19-6,5.35-11.63,8-17.48.73-1.65,1-1.65,2.31-.49a27.77,27.77,0,0,0,3.49,2.82c3.37,2,6.12,1.53,8.49-1.62a12.62,12.62,0,0,0,.94-1.47c4.05-7.18,8.65-14,12.43-21.36,1-2,1.45-2,2.88-.1.55.73,1,1.5,1.66,2.18,1.6,1.79,2.37,1.81,3.7-.09a83.17,83.17,0,0,1,7.13-9.31c1.84-2,1.65-2.16,4.42-2.69a2.48,2.48,0,0,0,1.85-1.5c.74-1.49,1.49-3,2.17-4.5a11.72,11.72,0,0,1,3.7-4.93,7.08,7.08,0,0,0,2.42-3.69c2-5.75,4-11.48,6-17.21.18-.55.4-1.08.66-1.76a2.17,2.17,0,0,1,.76,2.47,15.39,15.39,0,0,0-.33,4.48c.19,6.34-.62,12.63-.83,19a3.55,3.55,0,0,0,.12,1.72c.85,1.71.44,3.37,0,5.09-.72,3-1.33,6-1.9,9-.65,3.44.18,4.33,3.75,4.23a4.22,4.22,0,0,1,.65.07,7.8,7.8,0,0,1-1.44,3.27c-1.51,2.59-3,5.17-3.31,8.26-.24,2.12-1.58,3.82-2.81,5.5a8.6,8.6,0,0,0-1.8,3.53c-.45,2.45.31,3.68,2.72,4.14s4.93.82,7.39,1.21l2,.31c-3.83,3.79-6.33,8.18-9.27,12.25-.74,1-2,2.1,0,3.22.38.22.19.76-.08,1.11-.41.52-.85,1-1.27,1.54-2.53,3.07-5.3,6-7.52,9.27-1.41,2.09-3.3,3.69-4.76,5.68-.89,1.21-.87,1.75.55,2.21,8.31,2.74,15.73,7.6,24.13,10.07.06.85-.66.93-1.11,1.2-2.56,1.56-5.15,3.08-7.73,4.59-.67.4-1.35.79-1.08,1.72.39,1.3-.48,1.78-1.37,2.31q-4.31,2.52-8.59,5.09a31.26,31.26,0,0,0-2.9,2c-1.39,1.1-1.44,1.49-.65,3.15.64,1.36.59,1.71-.83,2.24-5.62,2.1-10.33,5.69-15.07,9.22-3.6,2.69-7.19,5.42-10.59,8.35a60.66,60.66,0,0,0-7.73,7.39c-2.34,2.89-2.08,3.9,1.23,5.76a30.33,30.33,0,0,0,15.26,4.07,59.86,59.86,0,0,0,12.17-1c1.37-.29,2.69-.44,3.37,1.2.22.56.76.56,1.22.73a12,12,0,0,0,4.41.75,60.32,60.32,0,0,1,16.54,2.13,34.44,34.44,0,0,0,6.14,1.06c.81.05,1.69.13,2.07,1.24a45.22,45.22,0,0,0-11.24,4.6,3.71,3.71,0,0,0-2.17,2.23,3.43,3.43,0,0,1-1.75,2c-2.33,1.3-4.5,2.89-7,3.8-1.43.52-2.35,1.16-1.93,2.89.28,1.18-.73,1.33-1.49,1.58-3.8,1.23-7.61,2.41-11.41,3.64a28.33,28.33,0,0,0-5.11,2c-1.66.92-1.93,1.84-1,3.49.53.93,1.24,1.77,1.84,2.67.41.6,1.1,1.05,1.08,2a6.92,6.92,0,0,1-4.22,1.1,57,57,0,0,0-8.63,1.24,43.34,43.34,0,0,1-17.86-.25,9.81,9.81,0,0,0-5.65.35c-2.42.91-2.72,1.52-1.76,3.93s2,4.76,3,7.14c.19.46.43.91.59,1.38.49,1.45.33,1.8-1.17,1.88a2.49,2.49,0,0,0-2.31,1.51c-.86,1.6-1.29,1.69-3,1.25a11.18,11.18,0,0,1-5.33-3.1,14.73,14.73,0,0,0-4.43-3.19c-.78-.35-1.43-.47-1.83.49s-1,.65-1.59.25c-.89-.61-1.77-1.24-2.62-1.91-6.69-5.24-13.41-10.43-20.36-15.33a13.2,13.2,0,0,0-8.2-2.48c-4.48.1-7.1,2.27-8,6.71a61.74,61.74,0,0,0-.78,9.2c-.43,8.08-1.74,16-2.82,24-1.2,8.9-2.46,17.81-3.85,26.69-1.25,8-2.6,15.93-4.59,23.76-.23.89-.38,1.79-.52,2.69-.09.64-.23,1.25-1,1.08s-.42-.81-.34-1.24c.45-2.46.94-4.9,1.42-7.35,1.73-8.74,3.14-17.53,4.59-26.32,2.38-14.38,4.54-28.79,4.28-43.43-.05-2.66-.06-5.33-.2-8-.1-1.9-.35-2.14-2.09-1.81-5.89,1.1-11.1,3.43-14.87,8.35a149,149,0,0,1-12.93,15.23,11,11,0,0,0-1.74,2.12c-1.51,2.62-4.11,4-6.21,5.76a1.35,1.35,0,0,1-.84-.79c-1.21-2.05-1.49-2.09-3.25-.39-1,.93-1.84,1.93-2.76,2.88a16.61,16.61,0,0,1-3.5,2.81c-3.77,2.23-7.34.52-8-3.84a14.32,14.32,0,0,1,.23-4c.11-1,.33-2,.37-3,.1-2.22-1.22-3.39-3.43-3.07a9.69,9.69,0,0,0-3,1.16C96.8,303,92.88,305,89,307.09a6.51,6.51,0,0,1-5,.9c-1.59-.43-3.14.11-4.68.38-2,.35-4.07.85-6.12,1.22-.79.14-1.63.48-2.46-.09"/></g></g></svg>