<svg xmlns="http://www.w3.org/2000/svg" width="216.795" height="74.236" viewBox="0 0 216.795 74.236">
  <g id="Logo" transform="translate(-68.217 -173.395)">
    <g id="Group_5412" data-name="Group 5412" transform="translate(68.216 173.395)">
      <g id="Group_5410" data-name="Group 5410">
        <path id="Path_5626" data-name="Path 5626" d="M82.916,247.135c-.273-.668-.03-1.671.7-3.008a42.284,42.284,0,0,1,2.765-4.375c1.276-1.914,2.8-4.041,4.527-6.35,1.762-2.309,3.707-4.831,5.864-7.535l6.289-7.778c-2.1.3-4.1.577-5.985.82s-3.616.456-5.135.638-2.8.334-3.889.456q-1.6.182-2.188.273c-.213.122-.456-.061-.668-.547a.631.631,0,0,1,.152-.365c.122-.122.213-.243.334-.365.395-.061,1.155-.152,2.309-.243s2.552-.213,4.223-.4c1.641-.182,3.494-.425,5.5-.668,2.005-.273,4.1-.547,6.32-.851,3.646-4.345,7.413-8.781,11.363-13.368S123.2,194.452,127,190.107c2.917-3.372,5.5-6.2,7.778-8.477l1-.911-1.306.182c-3.1.486-6.5.911-10.239,1.306s-7.6.851-11.576,1.4c-4.557.547-9.084,1.155-13.551,1.853a123.686,123.686,0,0,0-12.4,2.522,62.565,62.565,0,0,0-10,3.464,14.749,14.749,0,0,0-6.2,4.77c-1,1.55-1.337,2.8-1.033,3.737a3.851,3.851,0,0,0,2.339,2.218,13.215,13.215,0,0,0,5.165,1.185,40.692,40.692,0,0,0,7.049-.273,61.525,61.525,0,0,0,7.6-1.61,38.672,38.672,0,0,0,6.927-2.674,24.486,24.486,0,0,0,5.317-3.524,8.62,8.62,0,0,0,2.765-4.284c0-.486.213-.608.668-.365a.554.554,0,0,1,.334.152c.122.091.122.273,0,.577a9.787,9.787,0,0,1-2.977,4.74,24.665,24.665,0,0,1-5.651,3.737,45.221,45.221,0,0,1-7.231,2.765,47.666,47.666,0,0,1-7.6,1.58,42.344,42.344,0,0,1-7.231.273,15.066,15.066,0,0,1-5.5-1.185,5,5,0,0,1-3.069-2.947c-.456-1.306-.03-2.886,1.246-4.831a15.756,15.756,0,0,1,6.441-5.135,58.176,58.176,0,0,1,10.33-3.707c3.919-1,8.142-1.884,12.669-2.583,4.557-.7,9.054-1.276,13.52-1.762,4.557-.547,8.932-1.063,13.064-1.519,4.132-.486,7.808-1,11.059-1.519h.486L138.7,177.8c.82-.729,1.61-1.367,2.309-1.884a23.743,23.743,0,0,1,1.975-1.367,7.306,7.306,0,0,1,2.1-1.033,3.278,3.278,0,0,1,1.519-.061,1.734,1.734,0,0,1,1.124.82,1.943,1.943,0,0,1,.213,1.367,4.359,4.359,0,0,1-2.886,2.856A35.716,35.716,0,0,1,139,180.172l-1.306.182-.182.182c-1.276,1.215-2.7,2.674-4.345,4.436-1.61,1.732-3.433,3.707-5.408,5.864l-21.966,25.643q3.464-.456,6.927-1.094c2.309-.425,4.527-.911,6.623-1.428,2.1-.547,4.01-1.124,5.773-1.762a25.856,25.856,0,0,0,4.466-2.036c.122-.122.213-.152.334-.091a2.215,2.215,0,0,1,.334.273c.213.425.182.729-.152.911a22.862,22.862,0,0,1-4.709,2.127c-1.884.638-3.919,1.215-6.107,1.762s-4.5,1.033-6.9,1.428c-2.4.425-4.74.82-7.049,1.185h-.668c-1.276,1.55-2.491,3.1-3.646,4.588-1.155,1.519-2.309,2.977-3.464,4.436-2.157,2.643-4.1,5.135-5.864,7.474s-3.281,4.436-4.557,6.228c-.76,1.155-1.367,2.1-1.823,2.856s-.76,1.367-1,1.853a7.041,7.041,0,0,0-.425,1.124,4.675,4.675,0,0,0-.091.486c.122.3,0,.547-.334.729C83.342,247.742,83.129,247.621,82.916,247.135ZM146.993,175.4c-.061-.608-.365-.851-.942-.76a6.683,6.683,0,0,0-2.1.82,18.789,18.789,0,0,0-2.491,1.671c-.82.668-1.519,1.185-2.066,1.61v.182c1.7-.365,3.069-.7,4.1-1.033a13.108,13.108,0,0,0,2.309-.942,2.674,2.674,0,0,0,1-.851A1.97,1.97,0,0,0,146.993,175.4Z" transform="translate(-68.216 -173.395)" fill="#fff"/>
        <path id="Path_5627" data-name="Path 5627" d="M259.895,297.765a1.68,1.68,0,0,1-.729-1.944,5.775,5.775,0,0,1,1.246-2.522,10.637,10.637,0,0,1,2.461-2.157,5.447,5.447,0,0,1,2.977-.942,3.575,3.575,0,0,1,1.793.456,2.349,2.349,0,0,1,1.033,1c.121.182.061.334-.122.486a.463.463,0,0,1-.547.061,7.782,7.782,0,0,1-.79-.608,2.156,2.156,0,0,0-1.367-.3,4.147,4.147,0,0,0-2.157.729,9.961,9.961,0,0,0-2.036,1.671,7.125,7.125,0,0,0-1.246,1.793c-.243.577-.213.972.122,1.215a3.075,3.075,0,0,0,1.975-.395,25.972,25.972,0,0,0,2.613-1.458A31.738,31.738,0,0,0,267.764,293c.851-.668,1.58-1.215,2.188-1.7.547-.486.911-.547,1.124-.182a.689.689,0,0,1-.122.911,4.045,4.045,0,0,0-1.458,2.036c-.243.82-.182,1.306.213,1.489a2.431,2.431,0,0,0,1.884-.3,29.214,29.214,0,0,0,2.734-1.4c.942-.547,1.823-1.094,2.643-1.61.82-.547,1.337-.911,1.58-1.094a.517.517,0,0,1,.79.273c.182.365.152.638-.121.82-.395.243-1,.638-1.823,1.215s-1.732,1.124-2.674,1.671a20.666,20.666,0,0,1-2.886,1.367,3.721,3.721,0,0,1-2.339.273,1.543,1.543,0,0,1-1.124-1.185,2.342,2.342,0,0,1,.213-1.7c-.608.486-1.337,1-2.157,1.58a18.012,18.012,0,0,1-2.552,1.489,15.513,15.513,0,0,1-2.4.942A2,2,0,0,1,259.895,297.765Z" transform="translate(-201.11 -254.712)" fill="#fff"/>
        <path id="Path_5628" data-name="Path 5628" d="M312.9,281.5a1.834,1.834,0,0,1-.182-1.7,6.805,6.805,0,0,1,.82-1.7,4.438,4.438,0,0,1-1.155.668,3.524,3.524,0,0,0-.82.425c-.273.182-.486.121-.668-.182a.488.488,0,0,1,.182-.729,9.266,9.266,0,0,0,1.519-.82c.365-.243.668-.456.942-.668s.577-.425.911-.668.79-.547,1.4-.911c.334-.182.577-.091.79.273.182.365.152.638-.122.82a6.169,6.169,0,0,0-1.337,1.367q-.41.638-.82,1.367c-.456.79-.577,1.306-.425,1.519a1,1,0,0,0,.911.365,5.491,5.491,0,0,0,1.489-.213c.547-.152,1-.273,1.337-.395a32.625,32.625,0,0,0,3.646-1.519c1.306-.668,2.643-1.367,3.98-2.066.152-.182.3-.273.425-.213a1.367,1.367,0,0,1,.425.213.669.669,0,0,1-.334.911c-.547.365-1.458.881-2.674,1.58a33.136,33.136,0,0,1-3.919,1.853,19.6,19.6,0,0,1-3.889,1.124C314.086,282.324,313.3,282.112,312.9,281.5Zm3.98-9.206a.486.486,0,0,1-.122-.456q.046-.273.273-.273c.334-.365.668-.729,1.033-1.124a5.921,5.921,0,0,0,.942-1.4c.182-.425.395-.486.668-.182.456.243.547.486.334.729a7.806,7.806,0,0,1-2.309,2.886Q317.109,272.845,316.881,272.3Z" transform="translate(-237.102 -239.727)" fill="#fff"/>
        <path id="Path_5629" data-name="Path 5629" d="M318.458,305.694a2.519,2.519,0,0,1-.152-2.522,10.216,10.216,0,0,1,2.917-3.281,40.884,40.884,0,0,1,6.168-3.919c.729-.365,1.58-.76,2.552-1.215,1-.456,2.552-1.124,4.709-2.036a3.117,3.117,0,0,0-1.367-1.215c-.577-.273-1.185-.547-1.762-.851-.273-.121-.425-.273-.425-.456a.577.577,0,0,1,.243-.456c.425-.365.972-.76,1.58-1.215s1.4-1.033,2.4-1.762a8.381,8.381,0,0,0-1.276-.243,1.712,1.712,0,0,1-1.033-.486,16.741,16.741,0,0,1-2.157,1.762c-.668.456-1.215.82-1.641,1.124a.515.515,0,0,1-.79-.213.486.486,0,0,1,.213-.76c1.155-.851,2.1-1.549,2.8-2.157a4.407,4.407,0,0,0,1.246-1.367c.182-.365.395-.517.7-.456a.561.561,0,0,1,.456.638c0,.365.425.668,1.246.911a4.78,4.78,0,0,0,2.218.182.485.485,0,0,1,.7.273.413.413,0,0,1-.213.638,25.378,25.378,0,0,0-2.674,1.853c-.638.517-1.4,1.063-2.279,1.671a12.891,12.891,0,0,1,1.519.668,3.04,3.04,0,0,1,1.276,1.4l.668-.365c1.489-.668,2.917-1.337,4.254-2.036a41.93,41.93,0,0,0,4.436-2.674q.592-.365.82.182a.716.716,0,0,1-.152.911,45.157,45.157,0,0,1-4.5,2.7c-1.4.729-2.917,1.428-4.5,2.157l-.668.182.182.729a8.28,8.28,0,0,1-1.519,5.043,16.447,16.447,0,0,1-4.01,4.071,20.953,20.953,0,0,1-5.165,2.7,14.582,14.582,0,0,1-4.831,1,3.008,3.008,0,0,1-1.276-.273A1.68,1.68,0,0,1,318.458,305.694Zm16.5-11.91c-1.094.547-2.005.972-2.734,1.306s-1.337.638-1.853.851q-.775.365-1.367.638a10.918,10.918,0,0,0-1.155.638,25.949,25.949,0,0,0-6.016,3.555,8.527,8.527,0,0,0-2.4,2.947c-.334.729-.334,1.185-.03,1.367a2.281,2.281,0,0,0,1.185.273,9.911,9.911,0,0,0,4.223-.729,22.063,22.063,0,0,0,4.922-2.491,14.859,14.859,0,0,0,3.919-3.737A6.564,6.564,0,0,0,334.956,293.784Z" transform="translate(-242.142 -250.366)" fill="#fff"/>
        <path id="Path_5630" data-name="Path 5630" d="M396.395,297.765a1.68,1.68,0,0,1-.729-1.944,5.774,5.774,0,0,1,1.246-2.522,10.638,10.638,0,0,1,2.461-2.157,5.447,5.447,0,0,1,2.977-.942,3.575,3.575,0,0,1,1.793.456,2.349,2.349,0,0,1,1.033,1c.121.182.061.334-.122.486a.463.463,0,0,1-.547.061,7.775,7.775,0,0,1-.79-.608,2.156,2.156,0,0,0-1.367-.3,4.147,4.147,0,0,0-2.157.729,9.961,9.961,0,0,0-2.036,1.671,7.126,7.126,0,0,0-1.246,1.793c-.243.577-.213.972.122,1.215a3.075,3.075,0,0,0,1.975-.395,25.972,25.972,0,0,0,2.613-1.458A31.732,31.732,0,0,0,404.264,293c.851-.668,1.58-1.215,2.188-1.7.547-.486.911-.547,1.124-.182a.689.689,0,0,1-.122.911A4.045,4.045,0,0,0,406,294.059c-.243.82-.182,1.306.213,1.489a2.431,2.431,0,0,0,1.884-.3,29.209,29.209,0,0,0,2.734-1.4c.942-.547,1.823-1.094,2.643-1.61.82-.547,1.337-.911,1.58-1.094a.517.517,0,0,1,.79.273c.182.365.152.638-.122.82-.395.243-1,.638-1.823,1.215s-1.732,1.124-2.674,1.671a20.665,20.665,0,0,1-2.886,1.367,3.722,3.722,0,0,1-2.339.273,1.543,1.543,0,0,1-1.124-1.185,2.342,2.342,0,0,1,.213-1.7c-.608.486-1.337,1-2.157,1.58a18.016,18.016,0,0,1-2.552,1.489,15.513,15.513,0,0,1-2.4.942A2,2,0,0,1,396.395,297.765Z" transform="translate(-296.138 -254.712)" fill="#fff"/>
        <path id="Path_5631" data-name="Path 5631" d="M455.075,249.295a3.082,3.082,0,0,1-1.367-.76,2.018,2.018,0,0,1-.608-1.58,3.5,3.5,0,0,1,.213-1.185q.182-.638.456-1.367l.334-.365v-.182c-.273-.3-.213-.547.152-.729l.668-.365.486-.911a62.219,62.219,0,0,1,4.648-5.833c1.944-2.188,4.01-4.314,6.168-6.32a76.753,76.753,0,0,1,6.411-5.408,22.962,22.962,0,0,1,5.408-3.19h.486q.82,0,.82.729a5.753,5.753,0,0,1-1.4,2.522,41.246,41.246,0,0,1-3.372,3.615c-.729.668-1.793,1.641-3.221,2.886s-2.977,2.613-4.679,4.071c-1.671,1.458-3.372,2.856-5.135,4.254-1.732,1.4-3.221,2.522-4.5,3.433l-1.489.911-.152.365a11.258,11.258,0,0,0-.82,1.58,3.9,3.9,0,0,0-.334,1.489,1.318,1.318,0,0,0,1.155,1.367,9.188,9.188,0,0,0,2.947.061,28.429,28.429,0,0,0,3.889-.851c1.4-.425,2.765-.881,4.1-1.4,1.306-.517,2.491-1.033,3.555-1.58a13.427,13.427,0,0,0,2.218-1.367q.5-.456.82,0t-.182.911a14.887,14.887,0,0,1-3.251,2.036,39.12,39.12,0,0,1-4.952,2.036,31.946,31.946,0,0,1-5.286,1.306A9.23,9.23,0,0,1,455.075,249.295Zm18.685-22.21c.82-.729,1.489-1.367,2.036-1.944.517-.577,1-1.124,1.428-1.671l.486-.547.334-.547-.486.182a34.406,34.406,0,0,0-5.864,3.828,74.435,74.435,0,0,0-5.681,5.013c-1.823,1.732-3.464,3.464-4.952,5.135-1.489,1.7-2.7,3.1-3.646,4.254l1.155-.911c1-.729,2.218-1.7,3.707-2.947s2.977-2.491,4.5-3.737,2.917-2.461,4.162-3.615C472.211,228.483,473.152,227.632,473.76,227.085Z" transform="translate(-336.163 -206.606)" fill="#fff"/>
      </g>
      <g id="Group_5411" data-name="Group 5411" transform="translate(151.341 17.179)">
        <path id="Path_5632" data-name="Path 5632" d="M569.121,257.6a3.7,3.7,0,0,1-1.7-.972,3.641,3.641,0,0,1-.881-1.519,5.45,5.45,0,0,1-.182-1.884,11.439,11.439,0,0,1,.3-2.005,16.086,16.086,0,0,1,1.58-3.8,26.53,26.53,0,0,1,2.734-4.071,36.59,36.59,0,0,1,3.616-3.98A38.833,38.833,0,0,1,579,235.82a48.165,48.165,0,0,1,5.985-3.4,31.607,31.607,0,0,1,5.53-2.066,10.521,10.521,0,0,1,4.345-.3,3.146,3.146,0,0,1,2.522,1.732,3.564,3.564,0,0,1,.061,2.8,9.717,9.717,0,0,1-1.792,2.977,22.324,22.324,0,0,1-3.1,2.947,43.966,43.966,0,0,1-3.767,2.613,38.7,38.7,0,0,1-3.828,2.127,29.627,29.627,0,0,1-3.767,1.519,10.269,10.269,0,0,1-3.069.456c-.851-.061-1.4-.395-1.58-1.033a2.025,2.025,0,0,1,.152-1.367,7.013,7.013,0,0,1,1-1.641,13.444,13.444,0,0,1,1.58-1.671,16.177,16.177,0,0,1,1.884-1.428,11.235,11.235,0,0,1,2.005-1,5.571,5.571,0,0,1,1.884-.365c.213.122.334.243.334.365,0,.182-.122.273-.334.273a5.623,5.623,0,0,0-2.765.729,15.7,15.7,0,0,0-2.765,1.853,10.271,10.271,0,0,0-2.005,2.218,2.239,2.239,0,0,0-.486,1.823c.152.365.547.577,1.215.638a6.85,6.85,0,0,0,2.643-.456,31.747,31.747,0,0,0,3.524-1.367,32.279,32.279,0,0,0,3.889-2.066,34.043,34.043,0,0,0,3.98-2.8,22.164,22.164,0,0,0,2.947-2.856,8.332,8.332,0,0,0,1.61-2.7,3.192,3.192,0,0,0-.03-2.431,2.691,2.691,0,0,0-2.157-1.306,10.292,10.292,0,0,0-3.95.3,29.574,29.574,0,0,0-5.287,1.884,41.446,41.446,0,0,0-6.168,3.464,31.122,31.122,0,0,0-4.1,3.251,41.073,41.073,0,0,0-3.372,3.615,28.177,28.177,0,0,0-2.583,3.707,22.319,22.319,0,0,0-1.671,3.464,10.584,10.584,0,0,0-.577,1.975,6.4,6.4,0,0,0-.061,2.005,3.393,3.393,0,0,0,.7,1.7,3.225,3.225,0,0,0,1.7,1.063,5.283,5.283,0,0,0,2.309-.152,27.28,27.28,0,0,0,3.342-.942c1.246-.425,2.552-.911,3.95-1.489s2.765-1.185,4.071-1.853c1.306-.638,2.552-1.276,3.707-1.884s2.1-1.185,2.886-1.7c.213-.091.334-.091.425,0q.137.365-.091.456a22.835,22.835,0,0,1-2.218,1.367c-1.033.577-2.187,1.185-3.524,1.853-1.337.638-2.734,1.306-4.254,1.975s-2.947,1.246-4.345,1.732a39.038,39.038,0,0,1-3.828,1.124A5.764,5.764,0,0,1,569.121,257.6Z" transform="translate(-566.337 -229.937)" fill="#fff"/>
        <path id="Path_5633" data-name="Path 5633" d="M651.058,302.175c.091-.7.4-1,.942-.911a.419.419,0,0,1,.122.091.143.143,0,0,1,.03.182,1.683,1.683,0,0,1-.182.243,4.025,4.025,0,0,0-.3.334c-.061.243-.182.365-.365.334C651.088,302.418,651,302.327,651.058,302.175Z" transform="translate(-625.305 -279.582)" fill="#fff"/>
        <path id="Path_5634" data-name="Path 5634" d="M652.043,273.694q-.137-.319,0-.456c1.337-1.185,2.734-2.522,4.193-4.071,1.489-1.55,2.977-3.251,4.5-5.043l1.428-1.853-.76.091q-1.23,0-2.461-.091a18.687,18.687,0,0,1-2.522-.365h-.091l-.091-.091a.371.371,0,0,1-.091-.273.278.278,0,0,1,.091-.152c.03-.03.061-.061.091-.061,0-.061.03-.091.061-.091h.03a12.57,12.57,0,0,1,1.975-.121c1.155-.03,2.613-.061,4.375-.152l.668-.091,1.853-2.309,4.648-5.53c.4-.425.76-.851,1.155-1.306.365-.425.7-.851,1.063-1.306l.091-.091.091-.182a28.129,28.129,0,0,0,2.279-4.436,6.123,6.123,0,0,0,.516-3.221l-.273-.547-.243-.273a2,2,0,0,0-1.367-.486,8.1,8.1,0,0,0-2.1.3,13.221,13.221,0,0,0-2.583,1,29.306,29.306,0,0,0-2.8,1.58,26.5,26.5,0,0,0-2.917,2.036,22.487,22.487,0,0,0-2.461,2.218,10.688,10.688,0,0,0-1.7,2.188,4.367,4.367,0,0,0-.668,1.944q-.137.957,1.185.82a7.4,7.4,0,0,0,1.641-.547,12.972,12.972,0,0,0,1.884-1.033,16.1,16.1,0,0,0,3.585-2.917,11.268,11.268,0,0,0,1.124-1.489,2.252,2.252,0,0,0,.395-1.215.433.433,0,0,1,.061-.182.217.217,0,0,1,.182-.091.184.184,0,0,1,.182.091.432.432,0,0,1,.061.182,2.827,2.827,0,0,1-.425,1.519,10.991,10.991,0,0,1-1.215,1.671,12.618,12.618,0,0,1-1.732,1.61,18.964,18.964,0,0,1-1.944,1.367q-.957.547-1.914,1a5.744,5.744,0,0,1-1.7.547,2.315,2.315,0,0,1-1.4-.122c-.365-.182-.547-.608-.547-1.246a5.122,5.122,0,0,1,.729-2.218,12.39,12.39,0,0,1,1.823-2.37,24.344,24.344,0,0,1,2.583-2.309c.972-.76,1.944-1.428,2.947-2.066a27.9,27.9,0,0,1,2.977-1.58,16.95,16.95,0,0,1,2.886-1.063,5.994,5.994,0,0,1,2.37-.213,2.054,2.054,0,0,1,1.549.911,3.842,3.842,0,0,1,.274,2.8,16.789,16.789,0,0,1-1.458,3.859l-.182.273.425-.456c1.063-1.124,2.127-2.157,3.16-3.1a20.854,20.854,0,0,1,2.977-2.309,10.243,10.243,0,0,1,2.643-1.246,3.736,3.736,0,0,1,2.309.03,2.442,2.442,0,0,1,1.762,1.944,5.688,5.688,0,0,1-.517,3.19,16.526,16.526,0,0,1-2.4,3.8,33.471,33.471,0,0,1-3.859,3.95,37.382,37.382,0,0,1-4.284,3.19,32.663,32.663,0,0,1-5.013,2.613l-.334.182-.608.182c1.155-.091,2.522-.243,4.1-.425s3.19-.456,4.861-.76a49.955,49.955,0,0,0,4.892-1.185,16.024,16.024,0,0,0,4.041-1.762.385.385,0,0,1,.182.03.809.809,0,0,1,.182.152.229.229,0,0,1,.03.243c-.03.091-.061.152-.122.152a18.774,18.774,0,0,1-2.917,1.367,29.677,29.677,0,0,1-3.615,1.094q-1.914.456-3.919.82c-1.337.243-2.643.425-3.919.577s-2.461.273-3.585.395c-1.124.091-2.066.182-2.886.243-.486.122-.942.243-1.4.334-.456.122-.881.182-1.306.273l-.517.091-.516.638c-1.154,1.276-2.248,2.522-3.342,3.707-1.063,1.155-2.066,2.248-2.977,3.221-.547.516-1.063,1.033-1.61,1.519-.517.456-1.033.911-1.489,1.276-.456.395-.881.7-1.215.942a2.614,2.614,0,0,1-.82.425c-.03,0-.061-.03-.091-.061a.111.111,0,0,1-.091-.03Zm10.968-11.454-1.945,2.218c-.547.7-1.124,1.367-1.7,2.036-.547.638-1.124,1.306-1.7,1.944l-.3.365c.911-.972,1.853-1.975,2.856-3.1q1.5-1.641,3.1-3.464Zm-.243-.638.091-.091h-.091a10.6,10.6,0,0,1-1.337.091,9.014,9.014,0,0,0-1.276.091h-.486l-1.428-.182a19.478,19.478,0,0,0,3.221.273Zm1.762-.82,1-1.124c.608-.729,1.154-1.458,1.7-2.127.547-.7,1.063-1.4,1.58-2.1l.942-1.306-1.7,2.036a30.443,30.443,0,0,0-2.279,2.765l-1.61,1.853Zm3.737-.273,1.094-.365a32.541,32.541,0,0,0,5.773-2.765,39.09,39.09,0,0,0,4.952-3.585,29.487,29.487,0,0,0,3.767-3.8,15.767,15.767,0,0,0,2.248-3.676,4.6,4.6,0,0,0,.516-2.8,1.992,1.992,0,0,0-1.458-1.549,3.417,3.417,0,0,0-2.188.091,10.077,10.077,0,0,0-2.674,1.428,24.745,24.745,0,0,0-3.069,2.613c-1.094,1.033-2.248,2.218-3.433,3.555l-1,1.094a52.411,52.411,0,0,1-3.16,4.648c-1.185,1.58-2.37,3.129-3.616,4.648l-.608.729h.425l2.37-.273Z" transform="translate(-625.956 -237.338)" fill="#fff"/>
        <path id="Path_5635" data-name="Path 5635" d="M778.05,302.175c.091-.7.395-1,.942-.911a.419.419,0,0,1,.122.091.143.143,0,0,1,.03.182,1.678,1.678,0,0,1-.182.243,4.034,4.034,0,0,0-.3.334c-.061.243-.182.365-.365.334C778.05,302.418,777.989,302.327,778.05,302.175Z" transform="translate(-713.711 -279.582)" fill="#fff"/>
      </g>
    </g>
  </g>
</svg>
