<svg xmlns="http://www.w3.org/2000/svg" width="63.176" height="49.246" viewBox="0 0 63.176 49.246">
  <g id="quote" transform="translate(0 -7.858)">
    <g id="Group_5538" data-name="Group 5538" transform="translate(0 7.858)">
      <path id="Path_5636" data-name="Path 5636" d="M18.873,30.176a15.624,15.624,0,0,0-4.317-.63,13.568,13.568,0,0,0-5.414,1.109c1.361-4.982,4.63-13.578,11.142-14.546A1.547,1.547,0,0,0,21.546,15l1.423-5.091A1.547,1.547,0,0,0,21.69,7.957a10.81,10.81,0,0,0-1.456-.1C12.417,7.858,4.676,16.017,1.41,27.7-.508,34.552-1.07,44.856,3.653,51.341c2.643,3.629,6.5,5.567,11.461,5.761h.061a13.719,13.719,0,0,0,3.7-26.927Z" transform="translate(0 -7.858)" fill="#9a9a9a"/>
      <path id="Path_5637" data-name="Path 5637" d="M75.746,36.655A13.751,13.751,0,0,0,67.5,30.176a15.623,15.623,0,0,0-4.317-.63,13.571,13.571,0,0,0-5.414,1.109c1.361-4.982,4.63-13.578,11.143-14.546A1.548,1.548,0,0,0,70.172,15L71.6,9.905a1.547,1.547,0,0,0-1.279-1.948,10.8,10.8,0,0,0-1.456-.1c-7.817,0-15.558,8.159-18.825,19.841-1.917,6.854-2.479,17.157,2.245,23.644,2.642,3.628,6.5,5.567,11.46,5.76H63.8A13.719,13.719,0,0,0,75.746,36.655Z" transform="translate(-14.34 -7.858)" fill="#9a9a9a"/>
    </g>
  </g>
</svg>
